{"title":"BlinkyTM 2011 DVDRip Xvid UnKnOwn","uid":6681270,"size":245364164,"categoryP":"video","categoryS":"movies","magnet":"?xt=urn:btih:5758cb7d9cb6804f9c97f1886a9412d45fc80989&amp;dn=BlinkyTM+2011+DVDRip+Xvid+UnKnOwn&amp;tr=udp%3A%2F%2Ftracker.openbittorrent.com%3A80&amp;tr=udp%3A%2F%2Fopen.demonii.com%3A1337&amp;tr=udp%3A%2F%2Ftracker.coppersurfer.tk%3A6969&amp;tr=udp%3A%2F%2Fexodus.desync.com%3A6969","seeders":1,"leechers":0,"uploader":"SnowCrash03","files":-1,"time":1316202695,"description":"Encoded By .......:UnKnOwN\nRuntime ..........:0:15\nIMDb URL .........:http://www.imdb.com/title/tt1520494/\nLanguage .........:English\nFile Size ........:230mb\nRelease Date ......... 2011\nSource ......... Thanks Bud\nFile Type ......... Single AVI\nPS3 Compatible ....... Sure why not\nGenre ......... Horror/Sci fi/Short\n-\n\n\nVideo\nID : 0\nFormat : MPEG-4 Visual\nFormat profile : Advanced Simple@L5\nFormat settings, BVOP : Yes\nFormat settings, QPel : No\nFormat settings, GMC : No warppoints\nFormat settings, Matrix : Custom\nCodec ID : XVID\nCodec ID/Hint : XviD\nDuration : 0h 15mn\nBit rate : 2380Kbps\nWidth : 720pixels\nHeight : 304pixels\nDisplay aspect ratio : 2.35\nFrame rate : 23.997fps\nColor space : YUV\nChroma subsampling : 4:2:0\nBit depth : 8 bits\nScan type : Progressive\nBits/(Pixel*Frame) : 0.234\nStream size : 892 MiB (86%)\nWriting library : XviD 1.2.1 (UTC 2008-12-04)\n\nAudio\nID : 1\nFormat : MPEG\nFormat/Info : Version 1\nMode extension : MP3\nCodec ID : 2000\nDuration : 0h 15mn\nBit rate mode : Constant\nBit rate : 448Kbps\nChannel(s) : 6channels\nChannel positions : Front: L R\nSampling rate : 48.0 KHz\nBit depth : 16 bits\nStream size : 302 MiB\nAlignment : Aligned on interleaves\nInterleave, duration : 42 ms (1.00 video frame)\nInterleave, preload duration : 512 ms\n\n-\n\nSYSPNOSIS\nA story about a boy, his robot and the consequences of his anger at the\ndisintegration of his parents marriage.\n-\n\n\nRELEASE INFO\nRobts gone wild\n","torrent":{"xt":"urn:btih:5758cb7d9cb6804f9c97f1886a9412d45fc80989","amp;dn":"BlinkyTM+2011+DVDRip+Xvid+UnKnOwn","amp;tr":["udp%3A%2F%2Ftracker.openbittorrent.com%3A80","udp%3A%2F%2Fopen.demonii.com%3A1337","udp%3A%2F%2Ftracker.coppersurfer.tk%3A6969","udp%3A%2F%2Fexodus.desync.com%3A6969"],"infoHash":"5758cb7d9cb6804f9c97f1886a9412d45fc80989","infoHashBuffer":{"type":"Buffer","data":[87,88,203,125,156,182,128,79,156,151,241,136,106,148,18,212,95,200,9,137]},"announce":[],"urlList":[]}}